<?xml version="1.0" encoding="UTF-8" standalone="no"?>
<svg
   xmlns:dc="http://purl.org/dc/elements/1.1/"
   xmlns:cc="http://creativecommons.org/ns#"
   xmlns:rdf="http://www.w3.org/1999/02/22-rdf-syntax-ns#"
   xmlns:svg="http://www.w3.org/2000/svg"
   xmlns="http://www.w3.org/2000/svg"
   xmlns:sodipodi="http://sodipodi.sourceforge.net/DTD/sodipodi-0.dtd"
   xmlns:inkscape="http://www.inkscape.org/namespaces/inkscape"
   id="Layer_1"
   data-name="Layer 1"
   viewBox="0 0 108 108"
   version="1.1"
   sodipodi:docname="poe-foreground.svg"
   inkscape:version="0.92.3 (2405546, 2018-03-11)"
   width="108"
   height="108">
  <metadata
     id="metadata69">
    <rdf:RDF>
      <cc:Work
         rdf:about="">
        <dc:format>image/svg+xml</dc:format>
        <dc:type
           rdf:resource="http://purl.org/dc/dcmitype/StillImage" />
        <dc:title>proofofen</dc:title>
      </cc:Work>
    </rdf:RDF>
  </metadata>
  <sodipodi:namedview
     pagecolor="#ffffff"
     bordercolor="#666666"
     borderopacity="1"
     objecttolerance="10"
     gridtolerance="10"
     guidetolerance="10"
     inkscape:pageopacity="0"
     inkscape:pageshadow="2"
     inkscape:window-width="1920"
     inkscape:window-height="1001"
     id="namedview67"
     showgrid="false"
     inkscape:zoom="1.84375"
     inkscape:cx="-90.518786"
     inkscape:cy="-27.745081"
     inkscape:window-x="-9"
     inkscape:window-y="-9"
     inkscape:window-maximized="1"
     inkscape:current-layer="Layer_1" />
  <defs
     id="defs4">
    <style
       id="style2">.cls-1{fill:#008255;}.cls-2{fill:#115f30;}.cls-3{fill:#007749;}.cls-4{fill:none;}.cls-5{fill:#00ae6c;}</style>
  </defs>
  <title
     id="title6">proofofen</title>
  <g
     id="g4682"
     transform="matrix(0.27335063,0,0,0.27335063,19.011119,19.011118)">
    <g
       style="fill:#ffffff;fill-opacity:1"
       id="g4648">
      <circle
         style="opacity:1;fill:#ffffff;fill-opacity:1;fill-rule:nonzero;stroke:none;stroke-width:4.65513325;stroke-linejoin:round;stroke-miterlimit:4;stroke-dasharray:none;stroke-opacity:1"
         id="path4580"
         cx="128"
         cy="128"
         r="105" />
      <circle
         style="opacity:1;fill:#ffffff;fill-opacity:1;fill-rule:nonzero;stroke:none;stroke-width:4.7273345;stroke-linejoin:round;stroke-miterlimit:4;stroke-dasharray:none;stroke-opacity:1"
         id="path4584"
         cx="190.5538"
         cy="190.56497"
         r="43.5" />
    </g>
    <path
       id="path8"
       d="m 157.91381,148.23497 v -8 a 8.92,8.92 0 1 0 -5,0 v 5.92 l -22.39,22.41 v -13.29 l 10.63,-10.62 -0.07,-0.06 v 0 -21.2 l 15.18,-15.18 v 0 -53.250004 a 8.92,8.92 0 1 0 -5,0 v 51.170004 l -10.21,10.21 V 94.074966 a 8.91,8.91 0 1 0 -5,0 v 48.530004 l -5.58,5.58 v -30.1 0 l -9.74,-9.82 V 67.324966 a 8.92,8.92 0 1 0 -5,0 v 43.170004 h 0.15 l 9.68,9.68 v 26.79 l -19.07,-19.07 v -27.15 a 8.92,8.92 0 1 0 -5,0 v 29.13 0 l 24.11,24.11 v 64.54 h 5 v -42.9 l 27.41,-27.41 z m -9.41,-101.860004 a 5.34,5.34 0 1 1 5.33,5.34 5.33,5.33 0 0 1 -5.33,-5.34 z m -15.22,39.15 a 5.33,5.33 0 1 1 5.33,5.33 5.34,5.34 0 0 1 -5.33,-5.33 z m -20.43,-26.75 a 5.34,5.34 0 1 1 5.33,5.34 5.33,5.33 0 0 1 -5.33,-5.34 z m -14.250002,33.42 a 5.34,5.34 0 1 1 5.340002,5.34 5.34,5.34 0 0 1 -5.340002,-5.34 z m 51.470002,39.520004 a 5.34,5.34 0 1 1 5.34,5.34 5.34,5.34 0 0 1 -5.34,-5.34 z"
       class="cls-1"
       inkscape:connector-curvature="0"
       style="fill:#008255" />
    <path
       id="path10"
       d="m 118.18381,55.114966 a 3.67,3.67 0 1 0 3.67,3.66 3.66,3.66 0 0 0 -3.67,-3.66 z"
       class="cls-1"
       inkscape:connector-curvature="0"
       style="fill:#008255" />
    <path
       id="path12"
       d="m 40.493808,103.13497 a 3.66,3.66 0 1 0 3.66,3.66 3.67,3.67 0 0 0 -3.66,-3.66 z"
       class="cls-2"
       inkscape:connector-curvature="0"
       style="fill:#115f30" />
    <path
       id="path14"
       d="m 40.493808,134.15497 a 3.67,3.67 0 1 0 3.66,3.67 3.68,3.68 0 0 0 -3.66,-3.67 z"
       class="cls-2"
       inkscape:connector-curvature="0"
       style="fill:#115f30" />
    <path
       id="path16"
       d="m 48.333808,100.57497 a 83.73,83.73 0 0 1 95.500002,-54.680004 10,10 0 1 1 18.39,6 84.15,84.15 0 0 1 27.35,20.07 10,10 0 0 1 9.61,10 9.75,9.75 0 0 1 -0.31,2.43 c 0.79,1.29 1.55,2.59 2.26,3.92 a 10.05,10.05 0 0 1 9.58,-7 9.76,9.76 0 0 1 1.44,0.11 96.76,96.76 0 0 0 -176.700002,16.71 10,10 0 0 1 12.88,2.440004 z"
       class="cls-1"
       inkscape:connector-curvature="0"
       style="fill:#008255" />
    <path
       id="path18"
       d="m 40.493808,127.79497 a 10.18,10.18 0 0 1 3.23,0.54 c 0,-0.11 0,-0.22 0,-0.33 a 84.57,84.57 0 0 1 0.86,-12 h -0.05 a 10,10 0 0 1 -12.47,-3.78 97.57,97.57 0 0 0 -1.33,15.74 c 0,2.22 0.08,4.42 0.22,6.61 a 10,10 0 0 1 9.54,-6.78 z"
       class="cls-1"
       inkscape:connector-curvature="0"
       style="fill:#008255" />
    <path
       id="path20"
       d="m 76.853808,138.16497 a 4.22,4.22 0 1 0 4.22,4.22 4.23,4.23 0 0 0 -4.22,-4.22 z"
       class="cls-2"
       inkscape:connector-curvature="0"
       style="fill:#115f30" />
    <path
       id="path22"
       d="m 103.94381,87.964966 a 4.22,4.22 0 1 0 4.21,4.22 4.23,4.23 0 0 0 -4.21,-4.22 z"
       class="cls-2"
       inkscape:connector-curvature="0"
       style="fill:#115f30" />
    <path
       id="path24"
       d="m 118.18381,54.554966 a 4.22,4.22 0 1 0 4.22,4.22 4.23,4.23 0 0 0 -4.22,-4.22 z"
       class="cls-2"
       inkscape:connector-curvature="0"
       style="fill:#115f30" />
    <path
       id="path26"
       d="m 87.433808,63.474966 a 4.22,4.22 0 1 0 4.22,4.22 4.23,4.23 0 0 0 -4.22,-4.22 z"
       class="cls-2"
       inkscape:connector-curvature="0"
       style="fill:#115f30" />
    <path
       id="path28"
       d="m 66.493808,87.964966 a 4.22,4.22 0 1 0 4.24,4.23 4.23,4.23 0 0 0 -4.24,-4.23 z"
       class="cls-2"
       inkscape:connector-curvature="0"
       style="fill:#115f30" />
    <path
       id="path30"
       d="m 119.60381,161.83497 h -0.17 l -28.650002,-28.65 V 75.964966 a 8.92,8.92 0 1 0 -5,0.49 v 51.730004 l -16.78,-16.78 v -10.66 a 8.92,8.92 0 1 0 -5,0 v 12.88 h 0.14 l 5.53,5.53 h -13.3 l -8.07,-8.07 a 8.93,8.93 0 1 0 -3.57,3.54 l 9.53,9.54 h 20.41 l 39.910002,39.91 v 12.89 l -30.000002,-30.05 a 8.92,8.92 0 1 0 -3.66,3.43 l 13.17,13.17 h -24.65 l -21.24,-21.25 a 8.81,8.81 0 0 0 1.2,-4.44 8.92,8.92 0 1 0 -4.82,7.91 l 22.8,22.8 h 31.68 l 15.520002,15.52 v 6.74 l -19.520002,19.52 3.54,3.55 16.000002,-16 v 20.68 h 5 v -56.52 0 z M 61.163808,92.194966 a 5.34,5.34 0 1 1 5.33,5.34 5.33,5.33 0 0 1 -5.33,-5.34 z m -20.67,19.940004 a 5.34,5.34 0 1 1 5.33,-5.34 5.34,5.34 0 0 1 -5.33,5.34 z m 41.61,-44.440004 a 5.34,5.34 0 1 1 5.33,5.33 5.34,5.34 0 0 1 -5.33,-5.33 z m -5.25,80.000004 a 5.33,5.33 0 1 1 5.34,-5.33 5.33,5.33 0 0 1 -5.34,5.35 z m -36.36,-4.56 a 5.34,5.34 0 1 1 5.33,-5.33 5.34,5.34 0 0 1 -5.33,5.35 z"
       class="cls-3"
       inkscape:connector-curvature="0"
       style="fill:#007749" />
    <circle
       id="circle32"
       r="5.3299999"
       cy="81.934967"
       cx="189.15381"
       class="cls-4"
       style="fill:none" />
    <circle
       id="circle34"
       r="5.3299999"
       cy="91.254967"
       cx="210.71381"
       class="cls-4"
       style="fill:none" />
    <circle
       id="circle36"
       r="5.3299999"
       cy="138.68497"
       cx="205.70381"
       class="cls-4"
       style="fill:none" />
    <circle
       id="circle38"
       r="5.3299999"
       cy="106.44497"
       cx="173.23381"
       class="cls-4"
       style="fill:none" />
    <circle
       id="circle40"
       r="5.3299999"
       cy="81.934967"
       cx="189.15381"
       class="cls-4"
       style="fill:none" />
    <circle
       id="circle42"
       r="5.3299999"
       cy="106.44497"
       cx="173.23381"
       class="cls-4"
       style="fill:none" />
    <circle
       id="circle44"
       r="5.3299999"
       cy="138.68497"
       cx="205.70381"
       class="cls-4"
       style="fill:none" />
    <path
       id="path46"
       d="m 145.66381,184.08497 -3.44,3.44 v 4.63 l 3.23,3.23 a 45.21,45.21 0 0 1 -0.26,-4.82 46.19,46.19 0 0 1 0.47,-6.48 z"
       class="cls-4"
       inkscape:connector-curvature="0"
       style="fill:none" />
    <circle
       id="circle48"
       r="5.3299999"
       cy="91.254967"
       cx="210.71381"
       class="cls-4"
       style="fill:none" />
    <path
       id="path50"
       d="m 142.22381,192.15497 v -4.63 l 3.44,-3.44 a 44.69,44.69 0 0 1 2.45,-9.54 l -10.85,10.86 h -0.05 v 33.15 h 5 v -19.31 l 5.12,5.12 a 45.2,45.2 0 0 1 -1.89,-9 z"
       class="cls-5"
       inkscape:connector-curvature="0"
       style="fill:#00ae6c" />
    <path
       id="path52"
       d="m 205.73381,147.59497 a 8.92,8.92 0 1 0 -6.86,-3.22 l -1.35,1.36 a 44.87,44.87 0 0 1 7.42,1.8 6.83,6.83 0 0 0 0.79,0.06 z m 0,-14.25 a 5.34,5.34 0 1 1 -5.34,5.34 5.34,5.34 0 0 1 5.34,-5.34 z"
       class="cls-5"
       inkscape:connector-curvature="0"
       style="fill:#00ae6c" />
    <path
       id="path54"
       d="m 191.65381,138.09497 v 0 -11.13 l 21.51,-21.52 h 0.05 v -5.640004 a 8.92,8.92 0 1 0 -5,0 v 3.490004 l -16.55,16.55 V 90.494966 a 8.91,8.91 0 1 0 -5,0 v 45.520004 l -10.93,10.95 v -32 a 8.92,8.92 0 1 0 -5,0 v 34.76 a 44.86,44.86 0 0 1 13.35,-4.08 z m 13.73,-46.840004 a 5.34,5.34 0 1 1 5.35,5.34 5.33,5.33 0 0 1 -5.35,-5.34 z m -21.56,-9.29 a 5.33,5.33 0 1 1 5.33,5.34 5.33,5.33 0 0 1 -5.33,-5.34 z m -15.92,24.510004 a 5.34,5.34 0 1 1 5.33,5.33 5.33,5.33 0 0 1 -5.33,-5.36 z"
       class="cls-5"
       inkscape:connector-curvature="0"
       style="fill:#00ae6c" />
    <path
       id="path56"
       d="m 143.34381,210.21497 v 9.45 h -7.24 v -8.37 c -1.48,0.15 -3,0.26 -4.46,0.34 v 8 h -7.24 v -8 q -1.86,-0.06 -3.69,-0.21 v 8.2 h -7.24 v -9.1 a 82.27,82.27 0 0 1 -8.19,-1.81 l -6.680002,6.68 -5.12,-5.12 4.09,-4.09 a 84.08,84.08 0 0 1 -51.15,-57.08 l -2.08,-2.07 a 10,10 0 0 1 -12.42,-4.06 96.81,96.81 0 0 0 124.410002,77.33 45.33,45.33 0 0 1 -7.27,-11.42 c -1.88,0.51 -3.79,0.96 -5.72,1.33 z"
       class="cls-1"
       inkscape:connector-curvature="0"
       style="fill:#008255" />
    <path
       id="path58"
       d="m 224.12381,127.96497 a 96.72,96.72 0 0 0 -5.11,-31.140004 10.06,10.06 0 0 1 -4.68,3.740004 v 5.23 l -4.94,4.95 a 84.25,84.25 0 0 1 1.78,17.22 c 0,0.76 0,1.51 0,2.27 a 10,10 0 0 1 -2.45,18 c -0.05,0.22 -0.12,0.44 -0.17,0.65 a 46,46 0 0 1 11.48,7.17 97.08,97.08 0 0 0 4.09,-28.09 z"
       class="cls-1"
       inkscape:connector-curvature="0"
       style="fill:#008255" />
    <path
       id="path60"
       d="m 128.02381,229.78497 a 101.72,101.72 0 1 1 96.46,-69.31 45,45 0 0 1 4.4,5.85 107.92,107.92 0 1 0 -62.57,62.56 45,45 0 0 1 -5.85,-4.4 101.24,101.24 0 0 1 -32.44,5.3 z"
       class="cls-1"
       inkscape:connector-curvature="0"
       style="fill:#008255" />
    <path
       id="path62"
       d="m 190.55381,145.20497 a 45.36,45.36 0 1 0 45.36,45.36 45.36,45.36 0 0 0 -45.36,-45.36 z m 0,87 a 41.67,41.67 0 1 1 41.67,-41.66 41.71,41.71 0 0 1 -41.67,41.68 z"
       class="cls-2"
       inkscape:connector-curvature="0"
       style="fill:#115f30" />
    <path
       id="path64"
       d="m 190.55381,152.70497 a 37.86,37.86 0 1 0 37.86,37.86 37.86,37.86 0 0 0 -37.86,-37.86 z m 22.76,31.47 a 1.1,1.1 0 0 1 0.82,1.84 l -1.4,1.51 a 2.41,2.41 0 0 0 -0.62,1.62 v 4.36 a 22.16,22.16 0 0 1 -6.07,15.25 1.1000114,1.1000114 0 1 1 -1.6,-1.51 20,20 0 0 0 4.68,-8.18 21,21 0 0 0 0.5,-2.22 20.62,20.62 0 0 0 0.28,-3.34 v -4.36 a 4.65,4.65 0 0 1 1.19,-3.1 l 1.36,-1.51 a 1.11,1.11 0 0 1 0.86,-0.36 z m -12.1,20.72 a 5.66,5.66 0 0 1 -5.2,-1.79 9.64,9.64 0 0 0 -2.67,3.61 2.13,2.13 0 0 1 -1.93,1.36 2.11,2.11 0 0 1 -2.13,-2.16 c 0.32,-11.76 1.19,-14.18 2,-17.87 a 17,17 0 0 1 3.15,-6.7 8.94,8.94 0 0 0 -5.56,8.24 1,1 0 0 1 -1.71,0.5 7.43,7.43 0 0 1 -0.51,-7.92 c 3.37,-5.77 11.86,-3.55 13.8,-5.44 0.38,2.88 1.53,7.45 -1,11.9 -1.44,2.78 -4.07,4.38 -6,4.44 a 80.59,80.59 0 0 0 -0.83,9.47 12.69,12.69 0 0 1 9.79,-4.65 12.58,12.58 0 0 0 -6.63,0.3 c -2.92,0.94 1.78,-8.52 9.16,-2.52 a 18.46,18.46 0 0 0 3.12,2.22 c -1.45,1.48 -3.16,6.46 -6.85,7.01 z m 1.36,6.89 a 22.35,22.35 0 0 1 -6.64,3.18 1.1016351,1.1016351 0 0 1 -0.6,-2.12 19.78,19.78 0 0 0 6,-2.83 1.12,1.12 0 0 1 0.63,-0.2 1.11,1.11 0 0 1 0.63,2 z m -16.77,-12 c 2.94,1.83 -0.66,5.84 -4.73,5.1 -3.7,-0.55 -5.39,-5.53 -6.87,-7 a 18.8,18.8 0 0 0 3.11,-2.22 c 4.28,-3.48 8.87,-2 10.14,1.9 a 0.71,0.71 0 0 1 -0.92,0.89 12.54,12.54 0 0 0 -7.4,-0.57 12.58,12.58 0 0 1 6.67,1.91 z m -3.95,8.1 a 1.1,1.1 0 0 1 1,-0.63 1,1 0 0 1 0.47,0.11 15.29,15.29 0 0 0 4.38,1.32 1.1,1.1 0 0 1 0.93,1.25 1.09,1.09 0 0 1 -1.24,0.93 17.65,17.65 0 0 1 -5,-1.51 1.11,1.11 0 0 1 -0.54,-1.46 z m 29.37,-28.42 a 1.08,1.08 0 0 1 0.73,0.28 1.11,1.11 0 0 1 0.08,1.56 l -2.75,3.06 a 7.11,7.11 0 0 0 -1.83,4.77 1.11,1.11 0 0 1 -2.21,0 9.28,9.28 0 0 1 2.4,-6.24 l 2.76,-3.07 a 1.08,1.08 0 0 1 0.82,-0.35 z m -2.42,-3.25 a 1.11,1.11 0 0 1 0.08,1.56 l -3.1,3.45 a 11.77,11.77 0 0 0 -3,7.91 v 3.41 a 7.92,7.92 0 0 0 -2.21,-0.46 v -2.07 c 0.13,-0.21 0.26,-0.43 0.38,-0.65 a 14.59,14.59 0 0 0 1.73,-7.62 14.42,14.42 0 0 1 1.49,-2 l 3.11,-3.44 a 1.09,1.09 0 0 1 1.52,-0.08 z m -3.15,-3.52 a 1.09,1.09 0 0 1 0.08,1.55 l -3.44,3.83 v 0 c 0,-0.14 -0.05,-0.29 -0.07,-0.43 -0.06,-0.4 -0.12,-0.78 -0.16,-1.13 l -0.17,-1.29 2.2,-2.45 a 1.11,1.11 0 0 1 1.56,-0.07 z m -2.09,-4.7 a 1.09,1.09 0 0 1 0.08,1.55 l -4.85,5.42 c -0.3,0.33 -0.58,0.67 -0.85,1 -0.56,0.08 -1.19,0.14 -1.69,0.19 l -1.26,0.13 a 23.5,23.5 0 0 1 2.17,-2.82 l 4.84,-5.38 a 1.11,1.11 0 0 1 1.56,-0.12 z m -4.27,-3.81 a 1.1,1.1 0 0 1 0.82,1.84 l -4.72,5.2 a 25.81,25.81 0 0 0 -3.92,5.68 11.75,11.75 0 0 0 -3,1.24 28.18,28.18 0 0 1 5.28,-8.41 l 4.72,-5.19 a 1.09,1.09 0 0 1 0.82,-0.35 z m -5,-2 a 1.11,1.11 0 0 1 0.82,-0.36 1.07,1.07 0 0 1 0.74,0.29 1.09,1.09 0 0 1 0.07,1.55 l -4,4.39 a 30.54,30.54 0 0 0 -8,20.6 v 3.65 a 7.24,7.24 0 0 0 -1.69,-0.21 h -0.51 v -3.47 a 32.76,32.76 0 0 1 8.54,-22.09 z m -6.36,0 a 1.1008292,1.1008292 0 1 1 1.63,1.48 l -1.1,1.21 a 35.3,35.3 0 0 0 -9.19,23.77 v 4 a 10.87,10.87 0 0 0 -2.19,1.18 c 0,-0.12 0,-0.25 0,-0.37 v -4.83 a 37.47,37.47 0 0 1 9.76,-25.25 z m -14.2,15.78 a 43.62,43.62 0 0 1 1.59,-4.85 1.1,1.1 0 0 1 1,-0.69 1.12,1.12 0 0 1 0.4,0.07 1.11,1.11 0 0 1 0.62,1.43 39.2,39.2 0 0 0 -1.5,4.6 1.11,1.11 0 0 1 -2.11,-0.56 z m -1.37,10.71 a 43.1,43.1 0 0 1 0.39,-5.79 1.11,1.11 0 0 1 1.09,-0.95 h 0.16 a 1.1,1.1 0 0 1 0.94,1.24 40.3,40.3 0 0 0 -0.38,5.49 v 4.83 a 15.73,15.73 0 0 0 0.16,2.17 10.53,10.53 0 0 1 -1.16,0.77 l -0.87,0.4 a 17,17 0 0 1 -0.33,-3.34 z m -0.74,23.11 a 1.11,1.11 0 0 1 -1.56,-0.06 26.63,26.63 0 0 1 -5.7,-9.65 1.09,1.09 0 0 1 0.69,-1.39 1,1 0 0 1 0.35,-0.06 1.09,1.09 0 0 1 1,0.75 24.64,24.64 0 0 0 5.25,8.86 1.09,1.09 0 0 1 -0.05,1.55 z m 15.87,8.25 a 26.73,26.73 0 0 1 -10.79,-3 1.1,1.1 0 0 1 -0.47,-1.48 1.27,1.27 0 0 1 0.21,-0.29 1.12,1.12 0 0 1 1.28,-0.18 24.62,24.62 0 0 0 9.91,2.76 1.102225,1.102225 0 0 1 -0.14,2.2 z m 3.66,-4.31 c -0.41,0 -0.83,0 -1.24,0 a 22.27,22.27 0 0 1 -22.25,-22.25 v -4.83 a 1.1,1.1 0 0 1 2.2,0 v 4.83 a 20.08,20.08 0 0 0 20,20.05 c 0.37,0 0.75,0 1.12,0 a 1.09,1.09 0 0 1 1.16,1 1.11,1.11 0 0 1 -1.01,1.2 z m 0,-5.78 a 1.5,1.5 0 0 1 0,-0.3 1.1,1.1 0 0 1 0.94,-1 14.89,14.89 0 0 0 2.2,-0.49 15.43,15.43 0 0 0 4.05,-1.89 7.27,7.27 0 0 0 1.87,0.25 6.63,6.63 0 0 0 1.26,-0.11 3,3 0 0 0 0.32,-0.06 17.49,17.49 0 0 1 -9.39,4.48 1.1,1.1 0 0 1 -1.25,-0.86 z m 17.39,3 a 26.91,26.91 0 0 1 -13.4,7 7,7 0 0 0 -1.82,-1.93 24.79,24.79 0 0 0 21.3,-23.39 1.1,1.1 0 0 1 1.1,-1 v 0 a 1.1,1.1 0 0 1 1.05,1.15 26.84,26.84 0 0 1 -8.23,18.19 z"
       class="cls-5"
       inkscape:connector-curvature="0"
       style="fill:#00ae6c" />
  </g>
</svg>
