<?xml version="1.0" encoding="UTF-8" standalone="no"?>
<svg
   xmlns:dc="http://purl.org/dc/elements/1.1/"
   xmlns:cc="http://creativecommons.org/ns#"
   xmlns:rdf="http://www.w3.org/1999/02/22-rdf-syntax-ns#"
   xmlns:svg="http://www.w3.org/2000/svg"
   xmlns="http://www.w3.org/2000/svg"
   xmlns:sodipodi="http://sodipodi.sourceforge.net/DTD/sodipodi-0.dtd"
   xmlns:inkscape="http://www.inkscape.org/namespaces/inkscape"
   id="Layer_1"
   data-name="Layer 1"
   viewBox="0 0 256 256"
   version="1.1"
   sodipodi:docname="poe.svg"
   inkscape:version="0.92.3 (2405546, 2018-03-11)">
  <metadata
     id="metadata69">
    <rdf:RDF>
      <cc:Work
         rdf:about="">
        <dc:format>image/svg+xml</dc:format>
        <dc:type
           rdf:resource="http://purl.org/dc/dcmitype/StillImage" />
        <dc:title>proofofen</dc:title>
      </cc:Work>
    </rdf:RDF>
  </metadata>
  <sodipodi:namedview
     pagecolor="#ffffff"
     bordercolor="#666666"
     borderopacity="1"
     objecttolerance="10"
     gridtolerance="10"
     guidetolerance="10"
     inkscape:pageopacity="0"
     inkscape:pageshadow="2"
     inkscape:window-width="1267"
     inkscape:window-height="818"
     id="namedview67"
     showgrid="false"
     inkscape:zoom="0.921875"
     inkscape:cx="128"
     inkscape:cy="128"
     inkscape:window-x="0"
     inkscape:window-y="0"
     inkscape:window-maximized="0"
     inkscape:current-layer="Layer_1" />
  <defs
     id="defs4">
    <style
       id="style2">.cls-1{fill:#008255;}.cls-2{fill:#115f30;}.cls-3{fill:#007749;}.cls-4{fill:none;}.cls-5{fill:#00ae6c;}</style>
  </defs>
  <title
     id="title6">proofofen</title>
  <path
     class="cls-1"
     d="M158.18,148.27v-8a8.92,8.92,0,1,0-5,0v5.92L130.79,168.6V155.31l10.63-10.62-.07-.06h0v-21.2l15.18-15.18h0V55a8.92,8.92,0,1,0-5,0v51.17l-10.21,10.21V94.11a8.91,8.91,0,1,0-5,0v48.53l-5.58,5.58v-30.1h0L121,108.3V67.36a8.92,8.92,0,1,0-5,0v43.17h.15l9.68,9.68V147l-19.07-19.07V100.78a8.92,8.92,0,1,0-5,0v29.13l0,0,24.11,24.11v64.54h5v-42.9l27.41-27.41ZM148.77,46.41a5.34,5.34,0,1,1,5.33,5.34A5.33,5.33,0,0,1,148.77,46.41ZM133.55,85.56a5.33,5.33,0,1,1,5.33,5.33A5.34,5.34,0,0,1,133.55,85.56ZM113.12,58.81a5.34,5.34,0,1,1,5.33,5.34A5.33,5.33,0,0,1,113.12,58.81ZM98.87,92.23a5.34,5.34,0,1,1,5.34,5.34A5.34,5.34,0,0,1,98.87,92.23Zm51.47,39.52a5.34,5.34,0,1,1,5.34,5.34A5.34,5.34,0,0,1,150.34,131.75Z"
     id="path8" />
  <path
     class="cls-1"
     d="M118.45,55.15a3.67,3.67,0,1,0,3.67,3.66A3.66,3.66,0,0,0,118.45,55.15Z"
     id="path10" />
  <path
     class="cls-2"
     d="M40.76,103.17a3.66,3.66,0,1,0,3.66,3.66A3.67,3.67,0,0,0,40.76,103.17Z"
     id="path12" />
  <path
     class="cls-2"
     d="M40.76,134.19a3.67,3.67,0,1,0,3.66,3.67A3.68,3.68,0,0,0,40.76,134.19Z"
     id="path14" />
  <path
     class="cls-1"
     d="M48.6,100.61a83.73,83.73,0,0,1,95.5-54.68,10,10,0,1,1,18.39,6A84.15,84.15,0,0,1,189.84,72a10,10,0,0,1,9.61,10,9.75,9.75,0,0,1-.31,2.43c.79,1.29,1.55,2.59,2.26,3.92a10.05,10.05,0,0,1,9.58-7,9.76,9.76,0,0,1,1.44.11A96.76,96.76,0,0,0,35.72,98.17a10,10,0,0,1,12.88,2.44Z"
     id="path16" />
  <path
     class="cls-1"
     d="M40.76,127.83a10.18,10.18,0,0,1,3.23.54c0-.11,0-.22,0-.33a84.57,84.57,0,0,1,.86-12l-.05,0a10,10,0,0,1-12.47-3.78A97.57,97.57,0,0,0,31,128c0,2.22.08,4.42.22,6.61A10,10,0,0,1,40.76,127.83Z"
     id="path18" />
  <path
     class="cls-2"
     d="M77.12,138.2a4.22,4.22,0,1,0,4.22,4.22A4.23,4.23,0,0,0,77.12,138.2Z"
     id="path20" />
  <path
     class="cls-2"
     d="M104.21,88a4.22,4.22,0,1,0,4.21,4.22A4.23,4.23,0,0,0,104.21,88Z"
     id="path22" />
  <path
     class="cls-2"
     d="M118.45,54.59a4.22,4.22,0,1,0,4.22,4.22A4.23,4.23,0,0,0,118.45,54.59Z"
     id="path24" />
  <path
     class="cls-2"
     d="M87.7,63.51a4.22,4.22,0,1,0,4.22,4.22A4.23,4.23,0,0,0,87.7,63.51Z"
     id="path26" />
  <path
     class="cls-2"
     d="M66.76,88A4.22,4.22,0,1,0,71,92.23,4.23,4.23,0,0,0,66.76,88Z"
     id="path28" />
  <path
     class="cls-3"
     d="M119.87,161.87h-.17L91.05,133.22V76a8.92,8.92,0,1,0-5,.49v51.73L69.27,111.44V100.78a8.92,8.92,0,1,0-5,0v12.88h.14l5.53,5.53H56.64l-8.07-8.07A8.93,8.93,0,1,0,45,114.66l9.53,9.54H74.94l39.91,39.91V177l-30-30.05a8.92,8.92,0,1,0-3.66,3.43l13.17,13.17H69.71L48.47,142.3a8.81,8.81,0,0,0,1.2-4.44,8.92,8.92,0,1,0-4.82,7.91l22.8,22.8H99.33l15.52,15.52v6.74L95.33,210.35l3.54,3.55,16-16v20.68h5V162.06h0ZM61.43,92.23a5.34,5.34,0,1,1,5.33,5.34A5.33,5.33,0,0,1,61.43,92.23ZM40.76,112.17a5.34,5.34,0,1,1,5.33-5.34A5.34,5.34,0,0,1,40.76,112.17ZM82.37,67.73a5.34,5.34,0,1,1,5.33,5.33A5.34,5.34,0,0,1,82.37,67.73Zm-5.25,80a5.33,5.33,0,1,1,5.34-5.33A5.33,5.33,0,0,1,77.12,147.75Zm-36.36-4.56a5.34,5.34,0,1,1,5.33-5.33A5.34,5.34,0,0,1,40.76,143.19Z"
     id="path30" />
  <circle
     class="cls-4"
     cx="189.42"
     cy="81.97"
     r="5.33"
     id="circle32" />
  <circle
     class="cls-4"
     cx="210.98"
     cy="91.29"
     r="5.33"
     id="circle34" />
  <circle
     class="cls-4"
     cx="205.97"
     cy="138.72"
     r="5.33"
     id="circle36" />
  <circle
     class="cls-4"
     cx="173.5"
     cy="106.48"
     r="5.33"
     id="circle38" />
  <circle
     class="cls-4"
     cx="189.42"
     cy="81.97"
     r="5.33"
     id="circle40" />
  <circle
     class="cls-4"
     cx="173.5"
     cy="106.48"
     r="5.33"
     id="circle42" />
  <circle
     class="cls-4"
     cx="205.97"
     cy="138.72"
     r="5.33"
     id="circle44" />
  <path
     class="cls-4"
     d="M145.93,184.12l-3.44,3.44v4.63l3.23,3.23a45.21,45.21,0,0,1-.26-4.82A46.19,46.19,0,0,1,145.93,184.12Z"
     id="path46" />
  <circle
     class="cls-4"
     cx="210.98"
     cy="91.29"
     r="5.33"
     id="circle48" />
  <path
     class="cls-5"
     d="M142.49,192.19v-4.63l3.44-3.44a44.69,44.69,0,0,1,2.45-9.54l-10.85,10.86h-.05v33.15h5V199.28l5.12,5.12a45.2,45.2,0,0,1-1.89-9Z"
     id="path50" />
  <path
     class="cls-5"
     d="M206,147.63a8.92,8.92,0,1,0-6.86-3.22l-1.35,1.36a44.87,44.87,0,0,1,7.42,1.8A6.83,6.83,0,0,0,206,147.63Zm0-14.25a5.34,5.34,0,1,1-5.34,5.34A5.34,5.34,0,0,1,206,133.38Z"
     id="path52" />
  <path
     class="cls-5"
     d="M191.92,138.13h0V127l21.51-21.52h.05V99.84a8.92,8.92,0,1,0-5,0v3.49l-16.55,16.55V90.53a8.91,8.91,0,1,0-5,0v45.52L176,147V115a8.92,8.92,0,1,0-5,0v34.76a44.86,44.86,0,0,1,13.35-4.08Zm13.73-46.84A5.34,5.34,0,1,1,211,96.63,5.33,5.33,0,0,1,205.65,91.29ZM184.09,82a5.33,5.33,0,1,1,5.33,5.34A5.33,5.33,0,0,1,184.09,82Zm-15.92,24.51a5.34,5.34,0,1,1,5.33,5.33A5.33,5.33,0,0,1,168.17,106.48Z"
     id="path54" />
  <path
     class="cls-1"
     d="M143.61,210.25v9.45h-7.24v-8.37c-1.48.15-3,.26-4.46.34v8h-7.24v-8q-1.86-.06-3.69-.21v8.2h-7.24v-9.1a82.27,82.27,0,0,1-8.19-1.81l-6.68,6.68-5.12-5.12,4.09-4.09a84.08,84.08,0,0,1-51.15-57.08l-2.08-2.07a10,10,0,0,1-12.42-4.06A96.81,96.81,0,0,0,156.6,220.34a45.33,45.33,0,0,1-7.27-11.42C147.45,209.43,145.54,209.88,143.61,210.25Z"
     id="path56" />
  <path
     class="cls-1"
     d="M224.39,128a96.72,96.72,0,0,0-5.11-31.14,10.06,10.06,0,0,1-4.68,3.74v5.23l-4.94,4.95A84.25,84.25,0,0,1,211.44,128c0,.76,0,1.51,0,2.27a10,10,0,0,1-2.45,18c-.05.22-.12.44-.17.65a46,46,0,0,1,11.48,7.17A97.08,97.08,0,0,0,224.39,128Z"
     id="path58" />
  <path
     class="cls-1"
     d="M128.29,229.82a101.72,101.72,0,1,1,96.46-69.31,45,45,0,0,1,4.4,5.85,107.92,107.92,0,1,0-62.57,62.56,45,45,0,0,1-5.85-4.4A101.24,101.24,0,0,1,128.29,229.82Z"
     id="path60" />
  <path
     class="cls-2"
     d="M190.82,145.24a45.36,45.36,0,1,0,45.36,45.36A45.36,45.36,0,0,0,190.82,145.24Zm0,87a41.67,41.67,0,1,1,41.67-41.66A41.71,41.71,0,0,1,190.82,232.26Z"
     id="path62" />
  <path
     class="cls-5"
     d="M190.82,152.74a37.86,37.86,0,1,0,37.86,37.86A37.86,37.86,0,0,0,190.82,152.74Zm22.76,31.47a1.1,1.1,0,0,1,.82,1.84L213,187.56a2.41,2.41,0,0,0-.62,1.62v4.36a22.16,22.16,0,0,1-6.07,15.25,1.1,1.1,0,1,1-1.6-1.51,20,20,0,0,0,4.68-8.18,21,21,0,0,0,.5-2.22,20.62,20.62,0,0,0,.28-3.34v-4.36a4.65,4.65,0,0,1,1.19-3.1l1.36-1.51A1.11,1.11,0,0,1,213.58,184.21Zm-12.1,20.72a5.66,5.66,0,0,1-5.2-1.79,9.64,9.64,0,0,0-2.67,3.61,2.13,2.13,0,0,1-1.93,1.36,2.11,2.11,0,0,1-2.13-2.16c.32-11.76,1.19-14.18,2-17.87a17,17,0,0,1,3.15-6.7,8.94,8.94,0,0,0-5.56,8.24,1,1,0,0,1-1.71.5,7.43,7.43,0,0,1-.51-7.92c3.37-5.77,11.86-3.55,13.8-5.44.38,2.88,1.53,7.45-1,11.9-1.44,2.78-4.07,4.38-6,4.44a80.59,80.59,0,0,0-.83,9.47,12.69,12.69,0,0,1,9.79-4.65,12.58,12.58,0,0,0-6.63.3c-2.92.94,1.78-8.52,9.16-2.52a18.46,18.46,0,0,0,3.12,2.22C206.88,199.4,205.17,204.38,201.48,204.93Zm1.36,6.89A22.35,22.35,0,0,1,196.2,215a1.1,1.1,0,0,1-.6-2.12,19.78,19.78,0,0,0,6-2.83,1.12,1.12,0,0,1,.63-.2,1.11,1.11,0,0,1,.63,2Zm-16.77-12c2.94,1.83-.66,5.84-4.73,5.1-3.7-.55-5.39-5.53-6.87-7a18.8,18.8,0,0,0,3.11-2.22c4.28-3.48,8.87-2,10.14,1.9a.71.71,0,0,1-.92.89,12.54,12.54,0,0,0-7.4-.57A12.58,12.58,0,0,1,186.07,199.83Zm-3.95,8.1a1.1,1.1,0,0,1,1-.63,1,1,0,0,1,.47.11,15.29,15.29,0,0,0,4.38,1.32,1.1,1.1,0,0,1,.93,1.25,1.09,1.09,0,0,1-1.24.93,17.65,17.65,0,0,1-5-1.51A1.11,1.11,0,0,1,182.12,207.93Zm29.37-28.42a1.08,1.08,0,0,1,.73.28,1.11,1.11,0,0,1,.08,1.56l-2.75,3.06a7.11,7.11,0,0,0-1.83,4.77,1.11,1.11,0,0,1-2.21,0,9.28,9.28,0,0,1,2.4-6.24l2.76-3.07A1.08,1.08,0,0,1,211.49,179.51Zm-2.42-3.25a1.11,1.11,0,0,1,.08,1.56l-3.1,3.45a11.77,11.77,0,0,0-3,7.91v3.41a7.92,7.92,0,0,0-2.21-.46v-2.07c.13-.21.26-.43.38-.65a14.59,14.59,0,0,0,1.73-7.62,14.42,14.42,0,0,1,1.49-2l3.11-3.44A1.09,1.09,0,0,1,209.07,176.26Zm-3.15-3.52a1.09,1.09,0,0,1,.08,1.55l-3.44,3.83h0c0-.14-.05-.29-.07-.43-.06-.4-.12-.78-.16-1.13l-.17-1.29,2.2-2.45A1.11,1.11,0,0,1,205.92,172.74Zm-2.09-4.7a1.09,1.09,0,0,1,.08,1.55L199.06,175c-.3.33-.58.67-.85,1-.56.08-1.19.14-1.69.19l-1.26.13a23.5,23.5,0,0,1,2.17-2.82l4.84-5.38A1.11,1.11,0,0,1,203.83,168Zm-4.27-3.81a1.1,1.1,0,0,1,.82,1.84l-4.72,5.2a25.81,25.81,0,0,0-3.92,5.68,11.75,11.75,0,0,0-3,1.24,28.18,28.18,0,0,1,5.28-8.41l4.72-5.19A1.09,1.09,0,0,1,199.56,164.23Zm-5-2a1.11,1.11,0,0,1,.82-.36,1.07,1.07,0,0,1,.74.29,1.09,1.09,0,0,1,.07,1.55l-4,4.39a30.54,30.54,0,0,0-8,20.6v3.65a7.24,7.24,0,0,0-1.69-.21l-.51,0v-3.47a32.76,32.76,0,0,1,8.54-22.09Zm-6.36,0a1.1,1.1,0,1,1,1.63,1.48l-1.1,1.21a35.3,35.3,0,0,0-9.19,23.77v4a10.87,10.87,0,0,0-2.19,1.18c0-.12,0-.25,0-.37v-4.83a37.47,37.47,0,0,1,9.76-25.25ZM174,178a43.62,43.62,0,0,1,1.59-4.85,1.1,1.1,0,0,1,1-.69,1.12,1.12,0,0,1,.4.07,1.11,1.11,0,0,1,.62,1.43,39.2,39.2,0,0,0-1.5,4.6A1.11,1.11,0,0,1,174,178Zm-1.37,10.71a43.1,43.1,0,0,1,.39-5.79,1.11,1.11,0,0,1,1.09-.95h.16a1.1,1.1,0,0,1,.94,1.24,40.3,40.3,0,0,0-.38,5.49v4.83a15.73,15.73,0,0,0,.16,2.17,10.53,10.53,0,0,1-1.16.77l-.87.4a17,17,0,0,1-.33-3.34Zm-.74,23.11a1.11,1.11,0,0,1-1.56-.06,26.63,26.63,0,0,1-5.7-9.65,1.09,1.09,0,0,1,.69-1.39,1,1,0,0,1,.35-.06,1.09,1.09,0,0,1,1,.75,24.64,24.64,0,0,0,5.25,8.86A1.09,1.09,0,0,1,171.87,211.82Zm15.87,8.25a26.73,26.73,0,0,1-10.79-3,1.1,1.1,0,0,1-.47-1.48,1.27,1.27,0,0,1,.21-.29,1.12,1.12,0,0,1,1.28-.18,24.62,24.62,0,0,0,9.91,2.76,1.1,1.1,0,0,1-.14,2.2Zm3.66-4.31c-.41,0-.83,0-1.24,0a22.27,22.27,0,0,1-22.25-22.25v-4.83a1.1,1.1,0,0,1,2.2,0v4.83a20.08,20.08,0,0,0,20,20.05c.37,0,.75,0,1.12,0a1.09,1.09,0,0,1,1.16,1A1.11,1.11,0,0,1,191.4,215.76Zm0-5.78a1.5,1.5,0,0,1,0-.3,1.1,1.1,0,0,1,.94-1,14.89,14.89,0,0,0,2.2-.49,15.43,15.43,0,0,0,4.05-1.89,7.27,7.27,0,0,0,1.87.25,6.63,6.63,0,0,0,1.26-.11,3,3,0,0,0,.32-.06,17.49,17.49,0,0,1-9.39,4.48A1.1,1.1,0,0,1,191.42,210Zm17.39,3a26.91,26.91,0,0,1-13.4,7,7,7,0,0,0-1.82-1.93,24.79,24.79,0,0,0,21.3-23.39,1.1,1.1,0,0,1,1.1-1h0a1.1,1.1,0,0,1,1.05,1.15A26.84,26.84,0,0,1,208.81,213Z"
     id="path64" />
</svg>
